<svg xmlns="http://www.w3.org/2000/svg" xmlns:xlink="http://www.w3.org/1999/xlink" width="147" zoomAndPan="magnify" viewBox="0 0 110.25 158.999995" height="212" preserveAspectRatio="xMidYMid meet" version="1.0"><defs><clipPath id="824d55e935"><path d="M 0 0.539062 L 109.503906 0.539062 L 109.503906 158.460938 L 0 158.460938 Z M 0 0.539062 " clip-rule="nonzero"/></clipPath><clipPath id="4248a63def"><rect x="0" width="110" y="0" height="159"/></clipPath></defs><g clip-path="url(#824d55e935)"><g transform="matrix(1, 0, 0, 1, 0, 0.00000000000000433)"><g clip-path="url(#4248a63def)"><path fill="#000000" d="M 12.101562 11.746094 C 11.066406 13.890625 10.769531 16.347656 10.769531 22.730469 C 10.769531 25.957031 10.671875 28.65625 10.550781 28.730469 C 9.953125 29.101562 8.976562 23.492188 8.976562 19.683594 C 8.972656 16.214844 8.589844 15.9375 7.875 18.890625 C 7.511719 20.398438 7.4375 21.550781 7.515625 24.390625 C 7.632812 28.550781 8.078125 30.292969 9.734375 33.042969 C 10.304688 33.992188 11.074219 35.609375 11.441406 36.636719 C 14.507812 45.21875 19.070312 49.835938 33.589844 59.050781 C 37.488281 61.527344 42.5625 65.101562 43.863281 66.285156 L 44.519531 66.886719 L 46.503906 66.375 C 49.890625 65.507812 54.234375 65.011719 56.746094 65.207031 C 58.777344 65.363281 64.136719 66.34375 65.140625 66.738281 C 65.398438 66.839844 66.308594 66.285156 67.703125 65.179688 C 69.679688 63.613281 72.5 61.703125 80.089844 56.804688 C 84.136719 54.191406 89.628906 49.976562 91.839844 47.792969 C 95.078125 44.589844 97.023438 41.496094 98.71875 36.84375 C 99.15625 35.640625 99.960938 33.910156 100.503906 32.992188 C 102.359375 29.867188 102.953125 27.132812 102.742188 22.652344 C 102.597656 19.480469 102.125 17.054688 101.625 16.890625 C 101.449219 16.828125 101.308594 18.011719 101.21875 20.339844 C 101.085938 23.882812 100.230469 28.628906 99.722656 28.628906 C 99.585938 28.628906 99.488281 26.1875 99.488281 22.871094 C 99.488281 16.90625 99.234375 14.613281 98.292969 12.089844 C 98.03125 11.394531 97.707031 10.789062 97.5625 10.742188 C 97.398438 10.683594 97.335938 12.960938 97.382812 17.332031 C 97.425781 21.003906 97.367188 24.175781 97.253906 24.378906 C 97.101562 24.652344 96.550781 24.007812 95.210938 22.003906 C 92.1875 17.464844 91.035156 14.703125 91.019531 11.957031 C 91.011719 10.679688 90.972656 10.578125 90.652344 11 C 90.457031 11.257812 90.167969 12.242188 90.011719 13.179688 C 89.671875 15.207031 89.941406 16.976562 90.898438 19.074219 C 91.65625 20.734375 91.6875 21.003906 91.089844 20.824219 C 88.875 20.167969 88.617188 20.496094 90.449219 21.640625 C 92.097656 22.671875 93.210938 23.816406 94.5 25.804688 C 95.898438 27.964844 96.429688 29.558594 96.597656 32.09375 C 96.757812 34.554688 96.285156 36.679688 95.0625 38.992188 C 93.566406 41.824219 93.066406 40.808594 93.96875 36.757812 C 94.554688 34.132812 94.25 31.855469 92.976562 29.28125 C 92.171875 27.648438 89.742188 24.78125 89.742188 25.457031 C 89.742188 25.609375 90.105469 26.527344 90.550781 27.5 C 91.648438 29.917969 92.042969 31.519531 92.046875 33.582031 C 92.050781 35.589844 91.617188 37.613281 91.179688 37.613281 C 91.015625 37.613281 90.597656 37.410156 90.25 37.167969 C 89.902344 36.921875 89.054688 36.660156 88.367188 36.589844 L 87.121094 36.457031 L 86.175781 33.761719 C 85.085938 30.667969 84.054688 28.675781 82.445312 26.585938 C 81.5 25.355469 80 23.984375 80 24.351562 C 80 24.40625 80.570312 25.652344 81.269531 27.117188 C 82.464844 29.628906 84.105469 34.160156 84.484375 36.007812 C 84.683594 36.972656 84.875 36.875 81.59375 37.464844 C 80.285156 37.699219 78.898438 38.011719 78.515625 38.164062 C 77.867188 38.421875 77.855469 38.453125 78.332031 38.648438 C 78.617188 38.765625 79.550781 38.867188 80.410156 38.878906 C 81.273438 38.886719 82.699219 38.972656 83.582031 39.066406 L 85.1875 39.234375 L 85.011719 41.023438 C 84.351562 47.703125 81.347656 52.4375 75.261719 56.371094 C 73.546875 57.480469 71.839844 58.597656 70.132812 59.726562 C 68.71875 60.664062 67.523438 61.394531 67.476562 61.347656 C 67.425781 61.304688 67.625 59.902344 67.914062 58.234375 C 68.207031 56.566406 68.574219 54.160156 68.730469 52.890625 C 69.273438 48.527344 70.664062 44.257812 72.535156 41.210938 C 73.511719 39.625 73.523438 39.484375 72.628906 40.0625 C 70.492188 41.4375 67.84375 45.476562 66.675781 49.140625 C 66.398438 50.007812 65.875 52.246094 65.511719 54.113281 C 64.183594 60.933594 63.535156 63.933594 63.347656 64.132812 C 63.242188 64.246094 61.964844 64.097656 60.507812 63.800781 C 57.050781 63.09375 53.316406 63.097656 49.632812 63.808594 C 48.113281 64.101562 46.824219 64.300781 46.769531 64.246094 C 46.71875 64.195312 46.269531 62.023438 45.769531 59.417969 C 43.847656 49.378906 42.867188 46.320312 40.570312 43.214844 C 39.449219 41.695312 37.21875 39.542969 37 39.761719 C 36.921875 39.839844 37.210938 40.457031 37.644531 41.132812 C 39.601562 44.1875 40.824219 48.058594 41.523438 53.425781 C 42.027344 57.261719 42.433594 59.746094 42.726562 60.785156 C 42.796875 61.03125 42.730469 61.234375 42.578125 61.234375 C 42.0625 61.234375 32.605469 54.773438 31.03125 53.347656 C 28.632812 51.171875 27.019531 48.53125 25.9375 45.003906 C 25.265625 42.816406 24.941406 39.554688 25.367188 39.292969 C 25.535156 39.1875 26.847656 39.050781 28.285156 38.984375 C 31.242188 38.851562 32.050781 38.726562 32.050781 38.410156 C 32.050781 38.136719 29.296875 37.429688 27.324219 37.195312 C 26.515625 37.101562 25.800781 36.890625 25.742188 36.730469 C 25.609375 36.382812 26.878906 31.917969 27.683594 29.910156 C 27.992188 29.132812 28.703125 27.589844 29.265625 26.476562 C 29.824219 25.367188 30.230469 24.410156 30.171875 24.347656 C 29.949219 24.125 28.402344 25.664062 27.328125 27.179688 C 25.886719 29.21875 24.859375 31.289062 23.835938 34.222656 L 23.011719 36.585938 L 21.796875 36.585938 C 20.96875 36.585938 20.375 36.75 19.929688 37.097656 C 19.015625 37.820312 18.78125 37.75 18.476562 36.648438 C 17.769531 34.109375 18.371094 30.058594 19.902344 27.03125 C 20.804688 25.242188 20.652344 25.046875 19.34375 26.328125 C 16.21875 29.386719 15.152344 34.003906 16.535156 38.496094 C 16.921875 39.742188 16.859375 40.695312 16.394531 40.695312 C 16.027344 40.695312 14.875 38.71875 14.308594 37.125 C 13.570312 35.042969 13.40625 31.449219 13.964844 29.511719 C 14.789062 26.648438 16.78125 23.78125 19.210938 21.96875 C 19.960938 21.40625 20.707031 20.898438 20.867188 20.84375 C 21.023438 20.785156 21.078125 20.65625 20.984375 20.554688 C 20.894531 20.457031 20.378906 20.496094 19.847656 20.640625 C 19.3125 20.789062 18.84375 20.878906 18.804688 20.839844 C 18.765625 20.800781 19.09375 19.851562 19.535156 18.730469 C 20.203125 17.035156 20.339844 16.339844 20.332031 14.632812 C 20.328125 13.214844 20.183594 12.261719 19.863281 11.554688 L 19.398438 10.527344 L 19.207031 12.582031 C 19.105469 13.710938 18.777344 15.25 18.480469 16 C 17.578125 18.289062 13.796875 24.363281 13.207031 24.472656 C 13.042969 24.503906 12.902344 21.980469 12.820312 17.523438 L 12.691406 10.527344 Z M 21.347656 39.390625 C 20.339844 40.238281 18.972656 42.554688 18.972656 43.414062 C 18.972656 44.273438 19.566406 45.183594 21.019531 46.550781 C 22.152344 47.613281 23.816406 48.769531 23.980469 48.605469 C 24.046875 48.535156 23.875 47.8125 23.59375 47 C 23.109375 45.589844 22.441406 40.488281 22.613281 39.503906 C 22.722656 38.867188 22.042969 38.804688 21.347656 39.390625 M 87.554688 39.382812 C 87.808594 40.179688 87.242188 45.070312 86.691406 46.847656 C 86.40625 47.757812 86.21875 48.546875 86.273438 48.601562 C 86.472656 48.800781 88.617188 47.144531 89.796875 45.882812 C 90.460938 45.171875 91.082031 44.285156 91.175781 43.910156 C 91.402344 43.003906 90.664062 41.378906 89.390625 39.988281 C 88.347656 38.839844 87.273438 38.484375 87.554688 39.382812 M 16.527344 56.914062 C 17.246094 64.25 20.785156 70.863281 25.71875 74.089844 C 28.1875 75.703125 33.226562 77.128906 36.527344 77.144531 C 37.859375 77.152344 37.496094 76.878906 35 75.992188 C 29.0625 73.886719 25.476562 71.492188 23.472656 68.292969 C 21.886719 65.765625 20.503906 62.125 20.207031 59.691406 C 20.128906 59.0625 20.15625 59.050781 21.808594 59.085938 C 24.109375 59.136719 26.386719 59.753906 28.972656 61.023438 C 31.824219 62.421875 33.507812 64.128906 35.5 67.652344 C 37.132812 70.542969 38.136719 72.015625 38.476562 72.015625 C 38.59375 72.015625 38.472656 71.46875 38.210938 70.796875 C 37.945312 70.125 37.246094 68.25 36.65625 66.625 C 35.347656 63.03125 34.425781 61.515625 32.859375 60.363281 C 31.375 59.269531 28.644531 57.898438 26.261719 57.046875 C 24.242188 56.324219 18.480469 55.070312 17.179688 55.070312 L 16.34375 55.070312 Z M 89.101562 55.707031 C 83.050781 56.996094 79.132812 58.726562 76.648438 61.214844 C 74.972656 62.894531 74.960938 62.917969 73.226562 67.601562 C 72.269531 70.1875 71.53125 72.351562 71.589844 72.410156 C 71.71875 72.539062 73.507812 69.777344 75.257812 66.742188 C 76.847656 63.984375 78.585938 62.34375 81.363281 60.984375 C 83.796875 59.789062 85.785156 59.234375 88.414062 59.007812 L 90.285156 58.84375 L 90.121094 59.589844 C 89.105469 64.148438 87.464844 67.765625 85.371094 70.054688 C 83.507812 72.097656 80.695312 73.855469 76.894531 75.355469 C 75.105469 76.058594 73.523438 76.636719 73.375 76.636719 C 73.226562 76.636719 73.023438 76.773438 72.921875 76.933594 C 72.785156 77.15625 73.242188 77.191406 74.703125 77.066406 C 77.804688 76.804688 80.195312 76.171875 82.785156 74.929688 C 87.15625 72.828125 90.285156 68.96875 92.230469 63.28125 C 93.066406 60.832031 93.84375 57.222656 93.847656 55.777344 C 93.847656 55.128906 93.765625 55.074219 92.886719 55.089844 C 92.355469 55.097656 90.652344 55.375 89.101562 55.707031 M 41.539062 71.183594 L 38.671875 74.199219 L 38.835938 75.480469 C 39.429688 80.1875 42.042969 90.976562 44.089844 97.171875 C 44.902344 99.636719 46.84375 104.074219 47.992188 106.097656 L 48.753906 107.445312 L 61.546875 107.445312 L 63.441406 103.53125 C 66.480469 97.25 69.289062 87.578125 71.019531 77.441406 C 71.457031 74.878906 71.480469 74.40625 71.167969 73.953125 C 70.40625 72.835938 65.664062 68.058594 65.488281 68.230469 C 65.277344 68.445312 67.105469 71.273438 68.789062 73.34375 C 70.113281 74.972656 70.5625 75.734375 70.332031 75.960938 C 70.242188 76.050781 69.410156 76.125 68.476562 76.125 C 66.585938 76.125 65.871094 76.46875 65.429688 77.589844 C 65.09375 78.4375 64.308594 82.578125 64.457031 82.726562 C 64.511719 82.78125 64.820312 82.402344 65.136719 81.882812 C 65.765625 80.871094 67.332031 79.992188 68.527344 79.980469 C 68.914062 79.976562 69.230469 80.039062 69.230469 80.117188 C 69.230469 80.417969 67.367188 87.683594 66.632812 90.246094 C 65.496094 94.214844 63.8125 99.230469 63.617188 99.230469 C 63.355469 99.230469 61.335938 90.753906 60.742188 87.15625 L 60.210938 83.933594 L 61.796875 80.636719 C 63.34375 77.417969 64.191406 75.355469 63.96875 75.355469 C 63.8125 75.355469 61.03125 79.546875 59.914062 81.464844 C 58.839844 83.316406 58.800781 83.714844 59.347656 87.824219 C 60.042969 93.070312 61.347656 97.925781 62.460938 99.40625 C 62.800781 99.855469 63.078125 100.335938 63.078125 100.472656 C 63.078125 100.613281 62.542969 101.832031 61.886719 103.1875 L 60.699219 105.648438 L 49.585938 105.648438 L 48.382812 103.324219 C 47.71875 102.046875 47.179688 100.832031 47.179688 100.625 C 47.179688 100.417969 47.460938 99.816406 47.804688 99.289062 C 49 97.464844 50.132812 93.277344 50.90625 87.808594 C 51.5 83.636719 51.453125 83.25 50.082031 81.023438 C 48.042969 77.714844 46.375 75.304688 46.226562 75.453125 C 46.148438 75.53125 46.976562 77.492188 48.066406 79.8125 L 50.046875 84.035156 L 49.375 87.71875 C 48.597656 91.984375 46.871094 99.230469 46.632812 99.230469 C 46.179688 99.230469 42.589844 87.015625 41.136719 80.519531 C 41.003906 79.929688 41.039062 79.910156 42.066406 80.074219 C 43.585938 80.320312 44.484375 80.855469 45.132812 81.90625 C 45.445312 82.414062 45.742188 82.785156 45.792969 82.730469 C 45.929688 82.59375 45.148438 78.425781 44.832031 77.609375 C 44.410156 76.523438 43.917969 76.273438 41.886719 76.105469 C 40.847656 76.019531 39.921875 75.875 39.832031 75.785156 C 39.742188 75.695312 40.152344 75.011719 40.746094 74.265625 C 41.335938 73.523438 42.375 72.105469 43.050781 71.117188 C 45.746094 67.175781 45.328125 67.195312 41.539062 71.183594 M 71.058594 86.007812 C 70.558594 88.203125 70.386719 95.132812 70.757812 98.144531 C 71.175781 101.527344 72.164062 106.851562 73.085938 110.691406 C 73.984375 114.429688 74.015625 115.421875 73.335938 118.46875 C 71.339844 127.445312 67.25 134.210938 58.273438 143.378906 L 55.121094 146.597656 L 51.503906 142.882812 C 45.191406 136.394531 41.589844 131.40625 39.269531 125.933594 C 37.996094 122.925781 36.988281 119.507812 36.601562 116.882812 C 36.269531 114.644531 36.289062 114.503906 37.914062 106.933594 C 39.449219 99.785156 39.839844 96.308594 39.664062 91.40625 C 39.578125 88.988281 39.359375 86.761719 39.140625 86.007812 L 38.765625 84.726562 L 38.742188 86.300781 C 38.710938 88.421875 38.277344 92.691406 37.8125 95.460938 C 37.472656 97.464844 36.695312 101.027344 34.441406 110.914062 C 33.886719 113.34375 33.816406 114.128906 33.9375 116.5625 C 34.261719 122.890625 36.816406 130.09375 40.726562 135.6875 C 41.878906 137.335938 45.144531 141.53125 46.402344 142.984375 C 48.257812 145.125 49.871094 146.867188 52.359375 149.421875 L 55.113281 152.246094 L 56.683594 150.707031 C 58.671875 148.757812 64.046875 142.761719 66.144531 140.152344 C 68.515625 137.199219 71.21875 133.0625 72.601562 130.269531 C 74.9375 125.550781 76.578125 118.730469 76.332031 114.765625 C 76.261719 113.589844 75.539062 109.84375 74.65625 106.023438 C 72.386719 96.246094 71.789062 92.453125 71.472656 85.753906 L 71.410156 84.46875 Z M 53.398438 97.019531 C 52.449219 97.875 51.0625 98.695312 49.679688 99.210938 C 48.691406 99.582031 48.78125 100.320312 49.957031 101.496094 C 52.109375 103.652344 55.460938 104.386719 57.816406 103.214844 C 59.042969 102.609375 61.28125 100.507812 61.28125 99.96875 C 61.28125 99.746094 60.601562 99.257812 59.691406 98.828125 C 58.816406 98.414062 57.597656 97.640625 56.984375 97.113281 C 55.542969 95.871094 54.691406 95.847656 53.398438 97.019531 " fill-opacity="1" fill-rule="evenodd"/></g></g></g></svg>