<svg xmlns="http://www.w3.org/2000/svg" xmlns:xlink="http://www.w3.org/1999/xlink" width="130" zoomAndPan="magnify" viewBox="0 0 97.5 85.499998" height="114" preserveAspectRatio="xMidYMid meet" version="1.0"><defs><clipPath id="e823fdcf4f"><path d="M 12 0 L 85 0 L 85 85.003906 L 12 85.003906 Z M 12 0 " clip-rule="nonzero"/></clipPath><clipPath id="40f5d47bf9"><rect x="0" width="73" y="0" height="86"/></clipPath></defs><g clip-path="url(#e823fdcf4f)"><g transform="matrix(1, 0, 0, 1, 12, 0)"><g clip-path="url(#40f5d47bf9)"><path fill="#000000" d="M 13.316406 1.519531 C 12.933594 1.925781 12.53125 2.496094 12.222656 3.074219 C 11.332031 4.734375 10.964844 6.574219 10.746094 10.460938 C 10.671875 11.769531 10.660156 11.847656 10.410156 12.5 C 10.269531 12.875 10.136719 13.179688 10.113281 13.179688 C 10.019531 13.179688 9.695312 11.753906 9.617188 11.011719 C 9.53125 10.148438 9.609375 8.691406 9.808594 7.5 C 9.941406 6.71875 10.132812 4.945312 10.09375 4.90625 C 10.039062 4.851562 9.546875 5.667969 9.246094 6.316406 C 7.789062 9.421875 7.742188 12.695312 9.109375 15.792969 C 9.328125 16.292969 9.742188 17.261719 10.023438 17.953125 C 10.714844 19.628906 11.199219 20.601562 11.746094 21.421875 C 12.847656 23.066406 14.050781 24.246094 15.9375 25.53125 C 16.867188 26.164062 17.722656 26.628906 20.503906 28 C 24.679688 30.058594 27.078125 31.644531 29.621094 34.035156 C 30.183594 34.566406 30.375 34.707031 30.492188 34.679688 L 31.375 34.476562 C 33.078125 34.082031 34.851562 33.914062 36.777344 33.972656 C 39.015625 34.035156 40.304688 34.191406 41.851562 34.582031 L 42.398438 34.71875 L 43.175781 34 C 45.238281 32.089844 47.085938 30.765625 49.773438 29.273438 C 50.410156 28.921875 54.6875 26.769531 54.75 26.769531 C 54.769531 26.769531 55.121094 26.578125 55.535156 26.34375 C 57.214844 25.394531 58.796875 24.136719 59.949219 22.835938 C 60.976562 21.679688 61.792969 20.265625 62.730469 18.015625 C 63.03125 17.289062 63.40625 16.417969 63.558594 16.070312 C 64.320312 14.351562 64.632812 12.941406 64.640625 11.226562 C 64.644531 10.394531 64.609375 9.894531 64.519531 9.417969 C 64.355469 8.546875 63.988281 7.347656 63.675781 6.628906 C 63.433594 6.085938 62.746094 4.847656 62.707031 4.898438 C 62.664062 4.960938 62.820312 6.699219 62.941406 7.464844 C 63.273438 9.527344 63.261719 11.109375 62.910156 12.496094 C 62.816406 12.875 62.738281 13.207031 62.738281 13.230469 C 62.738281 13.386719 62.570312 13.054688 62.363281 12.480469 C 62.140625 11.859375 62.121094 11.738281 62.046875 10.425781 C 61.808594 6.289062 61.304688 4.105469 60.226562 2.515625 C 59.894531 2.023438 59.257812 1.261719 59.183594 1.261719 C 59.148438 1.261719 59.214844 1.535156 59.332031 1.871094 C 60 3.832031 60.265625 5.640625 60.410156 9.242188 L 60.457031 10.425781 L 59.734375 9.734375 C 57.632812 7.734375 56.902344 6.8125 56.230469 5.3125 C 55.964844 4.714844 55.660156 3.476562 55.554688 2.582031 C 55.511719 2.183594 55.457031 1.808594 55.441406 1.75 C 55.390625 1.585938 55.25 1.910156 55.0625 2.621094 C 54.832031 3.496094 54.832031 4.863281 55.0625 5.722656 C 55.273438 6.507812 55.730469 7.4375 56.257812 8.152344 C 56.617188 8.644531 56.660156 8.730469 56.523438 8.691406 C 55.699219 8.453125 55.234375 8.355469 54.757812 8.324219 L 54.199219 8.292969 L 54.863281 8.648438 C 57.09375 9.855469 58.011719 10.476562 58.949219 11.421875 C 60.414062 12.90625 61.214844 14.566406 61.21875 16.140625 C 61.222656 16.878906 60.976562 17.695312 60.425781 18.8125 C 59.992188 19.6875 59.367188 20.628906 59.300781 20.515625 C 59.277344 20.480469 59.320312 20.1875 59.390625 19.867188 C 59.9375 17.355469 59.632812 15.378906 58.460938 13.828125 C 58.09375 13.347656 57.285156 12.628906 56.753906 12.3125 C 56.644531 12.246094 56.636719 12.230469 57.03125 12.832031 C 57.503906 13.554688 57.828125 14.292969 58.082031 15.234375 C 58.253906 15.863281 58.324219 17.351562 58.214844 18.058594 C 58.148438 18.5 57.957031 19.21875 57.890625 19.300781 C 57.878906 19.3125 57.65625 19.148438 57.394531 18.929688 C 56.976562 18.582031 55.441406 17.734375 55.367188 17.808594 C 55.332031 17.84375 55.65625 18.75 55.796875 19.019531 C 55.851562 19.121094 55.996094 19.300781 56.117188 19.417969 C 56.375 19.660156 57.136719 20.625 57.355469 20.988281 C 57.4375 21.121094 57.535156 21.371094 57.570312 21.539062 C 57.628906 21.796875 57.617188 21.890625 57.496094 22.128906 C 57.296875 22.527344 56.179688 23.625 55.59375 23.996094 C 55.007812 24.371094 53.746094 25.050781 53.707031 25.011719 C 53.691406 24.996094 53.824219 24.6875 54 24.328125 C 54.363281 23.585938 54.714844 22.554688 54.90625 21.683594 C 55.105469 20.78125 55.085938 18.632812 54.875 17.65625 C 54.648438 16.605469 54.40625 15.886719 53.988281 15.027344 C 53.328125 13.652344 52.425781 12.46875 51.445312 11.675781 C 50.933594 11.261719 49.878906 10.601562 49.730469 10.601562 C 49.679688 10.601562 49.832031 10.859375 50.070312 11.171875 C 51.355469 12.882812 52.339844 14.910156 52.84375 16.878906 C 52.917969 17.175781 52.980469 17.4375 52.980469 17.457031 C 52.980469 17.476562 52.550781 17.492188 52.023438 17.492188 C 50.945312 17.492188 50.292969 17.601562 49.402344 17.925781 C 48.625 18.214844 48.597656 18.265625 49.234375 18.265625 C 50.484375 18.265625 52.667969 18.550781 53.070312 18.765625 C 53.199219 18.835938 53.207031 18.894531 53.167969 19.753906 C 53.085938 21.546875 52.570312 23.136719 51.5625 24.671875 C 50.695312 25.996094 49.574219 26.984375 47.789062 28.003906 C 45.945312 29.054688 44.621094 29.890625 43.585938 30.65625 C 43.304688 30.863281 43.058594 31.019531 43.042969 31 C 43.023438 30.984375 43.039062 30.707031 43.078125 30.382812 C 43.117188 30.0625 43.199219 29.09375 43.257812 28.234375 C 43.394531 26.210938 43.539062 24.933594 43.757812 23.808594 C 44.136719 21.851562 45.042969 19.695312 46.066406 18.328125 C 46.542969 17.691406 46.550781 17.671875 46.296875 17.820312 C 45.8125 18.105469 44.964844 18.832031 44.484375 19.378906 C 43.308594 20.714844 42.519531 22.222656 41.933594 24.261719 C 41.628906 25.324219 41.460938 26.230469 41.199219 28.269531 C 40.945312 30.253906 40.683594 31.5 40.332031 32.449219 C 40.1875 32.832031 40.0625 33.15625 40.054688 33.164062 C 40.046875 33.175781 39.480469 33.136719 38.792969 33.078125 C 36.914062 32.917969 34.859375 32.945312 33.070312 33.148438 L 32.707031 33.191406 L 32.59375 32.925781 C 32.417969 32.507812 32.027344 31.179688 31.90625 30.589844 C 31.84375 30.296875 31.6875 29.207031 31.550781 28.167969 C 31.414062 27.128906 31.242188 25.976562 31.160156 25.609375 C 30.515625 22.632812 29.554688 20.6875 27.929688 19.070312 C 27.261719 18.40625 26.160156 17.519531 26.316406 17.769531 C 26.347656 17.820312 26.605469 18.199219 26.886719 18.621094 C 27.765625 19.917969 28.523438 21.648438 28.875 23.140625 C 29.160156 24.367188 29.414062 26.34375 29.527344 28.269531 C 29.582031 29.171875 29.695312 30.496094 29.746094 30.835938 L 29.789062 31.101562 L 29.273438 30.722656 C 28.53125 30.175781 27.199219 29.300781 26.375 28.820312 C 23.898438 27.382812 22.976562 26.734375 22.117188 25.832031 C 20.578125 24.210938 19.597656 21.753906 19.597656 19.523438 L 19.597656 18.773438 L 20 18.660156 C 20.78125 18.445312 21.667969 18.328125 22.820312 18.285156 C 23.898438 18.25 24.179688 18.199219 23.867188 18.109375 C 23.800781 18.085938 23.460938 17.972656 23.117188 17.847656 C 22.273438 17.546875 21.351562 17.417969 20.460938 17.472656 L 19.753906 17.515625 L 19.949219 16.792969 C 20.507812 14.746094 21.347656 13.011719 22.621094 11.265625 C 22.875 10.925781 23.066406 10.628906 23.050781 10.613281 C 23.035156 10.597656 22.695312 10.78125 22.292969 11.015625 C 19.910156 12.4375 18.210938 15.21875 17.78125 18.390625 C 17.667969 19.257812 17.734375 20.941406 17.921875 21.835938 C 18.105469 22.707031 18.414062 23.566406 18.84375 24.425781 L 19.191406 25.113281 L 18.441406 24.71875 C 17.476562 24.207031 16.886719 23.820312 16.304688 23.308594 C 15.824219 22.890625 15.3125 22.269531 15.195312 21.964844 C 15.023438 21.515625 15.441406 20.773438 16.652344 19.375 C 16.9375 19.046875 17.109375 18.761719 17.246094 18.398438 C 17.351562 18.113281 17.4375 17.863281 17.4375 17.835938 C 17.4375 17.757812 16.488281 18.171875 16.023438 18.453125 C 15.789062 18.59375 15.429688 18.847656 15.226562 19.015625 C 14.863281 19.3125 14.855469 19.3125 14.796875 19.15625 C 14.421875 18.167969 14.367188 16.519531 14.671875 15.332031 C 14.957031 14.226562 15.417969 13.195312 15.949219 12.5 C 16.160156 12.21875 16.117188 12.214844 15.726562 12.484375 C 14.566406 13.285156 13.632812 14.59375 13.296875 15.898438 C 13.035156 16.910156 13.074219 18.390625 13.40625 19.816406 C 13.484375 20.152344 13.535156 20.464844 13.519531 20.511719 C 13.460938 20.679688 12.824219 19.75 12.382812 18.859375 C 11.566406 17.207031 11.390625 16.382812 11.613281 15.261719 C 11.890625 13.890625 12.636719 12.589844 13.808594 11.4375 C 14.859375 10.398438 15.617188 9.882812 17.75 8.738281 L 18.585938 8.289062 L 18.03125 8.328125 C 17.554688 8.359375 17.046875 8.464844 16.261719 8.691406 C 16.125 8.730469 16.164062 8.652344 16.507812 8.1875 C 17.015625 7.5 17.433594 6.707031 17.6875 5.929688 C 17.867188 5.382812 17.882812 5.257812 17.882812 4.222656 C 17.882812 3.105469 17.796875 2.574219 17.503906 1.855469 L 17.417969 1.644531 L 17.363281 1.855469 C 17.335938 1.96875 17.242188 2.5 17.160156 3.035156 C 16.777344 5.472656 16.144531 6.59375 13.800781 8.964844 L 12.351562 10.425781 L 12.351562 9.625 C 12.347656 7.019531 12.773438 3.984375 13.429688 1.929688 C 13.527344 1.625 13.597656 1.347656 13.585938 1.316406 C 13.578125 1.285156 13.453125 1.375 13.316406 1.519531 M 14.671875 28.34375 C 14.589844 28.5625 14.71875 29.8125 14.890625 30.476562 C 15.820312 34.019531 18.007812 36.84375 20.964844 38.332031 C 22.554688 39.128906 24.085938 39.523438 26.078125 39.648438 L 26.878906 39.699219 L 27.003906 40.464844 C 27.765625 45.210938 28.558594 48.398438 29.753906 51.511719 C 30.472656 53.386719 31.378906 55.113281 32.570312 56.886719 L 32.972656 57.492188 L 36.164062 57.515625 C 37.917969 57.527344 39.464844 57.523438 39.597656 57.503906 C 39.8125 57.472656 39.886719 57.398438 40.210938 56.910156 C 42.753906 53.058594 44.191406 49.160156 45.382812 42.84375 C 45.628906 41.554688 45.867188 40.046875 45.871094 39.761719 C 45.871094 39.710938 46.171875 39.667969 46.691406 39.640625 C 50.667969 39.433594 53.964844 37.644531 56.101562 34.523438 C 57.246094 32.847656 58.066406 30.5625 58.09375 28.964844 L 58.101562 28.269531 L 57.859375 28.242188 C 57.214844 28.179688 54.527344 28.59375 53.160156 28.96875 C 50.660156 29.648438 48.832031 30.65625 47.265625 32.207031 C 46.101562 33.359375 45.273438 34.617188 44.652344 36.175781 C 44.265625 37.152344 44.261719 37.066406 44.75 38.375 C 44.988281 39.019531 45.035156 39.222656 45.035156 39.664062 C 45.035156 39.949219 45.007812 40.222656 44.980469 40.269531 C 44.9375 40.335938 44.769531 40.339844 44.269531 40.285156 C 43.261719 40.183594 42.8125 40.289062 42.398438 40.738281 C 42.019531 41.148438 41.941406 41.320312 41.625 42.429688 C 41.472656 42.960938 41.300781 43.507812 41.242188 43.652344 C 41.179688 43.792969 41.132812 43.925781 41.132812 43.949219 C 41.132812 43.96875 41.304688 43.84375 41.519531 43.671875 C 41.730469 43.5 42.035156 43.289062 42.199219 43.207031 C 42.46875 43.066406 44.4375 42.378906 44.5625 42.378906 C 44.59375 42.378906 44.605469 42.453125 44.585938 42.539062 C 44.570312 42.625 44.488281 43.039062 44.40625 43.460938 C 44.1875 44.601562 43.601562 46.949219 43.25 48.085938 C 42.691406 49.890625 41.59375 52.632812 41.476562 52.503906 C 41.425781 52.449219 40.960938 51.039062 40.726562 50.222656 C 40.347656 48.914062 39.878906 46.84375 39.5625 45.054688 L 39.449219 44.417969 L 39.953125 43.277344 C 40.28125 42.535156 40.609375 41.796875 40.941406 41.054688 C 41.574219 39.648438 41.628906 39.523438 41.59375 39.523438 C 41.550781 39.523438 40.46875 40.902344 40.007812 41.546875 C 39.628906 42.078125 38.9375 43.261719 38.617188 43.929688 L 38.460938 44.257812 L 38.714844 45.777344 C 39.238281 48.84375 39.847656 50.980469 40.691406 52.664062 L 41.074219 53.4375 L 40.484375 54.445312 C 40.160156 55 39.75 55.679688 39.570312 55.957031 L 39.242188 56.460938 L 33.523438 56.421875 L 32.902344 55.449219 C 32.558594 54.910156 32.15625 54.234375 32.003906 53.945312 L 31.730469 53.417969 L 32.105469 52.671875 C 32.863281 51.160156 33.601562 48.554688 34.097656 45.632812 C 34.320312 44.324219 34.320312 44.320312 34.191406 44.03125 C 33.949219 43.484375 33.378906 42.488281 32.898438 41.761719 C 32.433594 41.0625 31.230469 39.503906 31.1875 39.546875 C 31.175781 39.558594 31.324219 39.910156 31.511719 40.332031 C 32.875 43.328125 33.277344 44.304688 33.269531 44.589844 C 33.257812 45.035156 32.730469 47.617188 32.351562 49.105469 C 32.050781 50.289062 31.417969 52.421875 31.324219 52.582031 C 31.242188 52.71875 30.375 50.605469 29.773438 48.804688 C 29.339844 47.511719 28.65625 44.910156 28.351562 43.410156 C 28.15625 42.449219 28.136719 42.28125 28.234375 42.34375 C 28.269531 42.363281 28.78125 42.550781 29.375 42.757812 C 30.445312 43.132812 30.746094 43.28125 31.265625 43.699219 C 31.414062 43.816406 31.550781 43.902344 31.566406 43.886719 C 31.617188 43.835938 30.890625 41.539062 30.710938 41.195312 C 30.621094 41.011719 30.414062 40.75 30.257812 40.617188 C 29.851562 40.269531 29.457031 40.195312 28.535156 40.292969 C 28.136719 40.335938 27.792969 40.355469 27.773438 40.332031 C 27.75 40.3125 27.730469 40.035156 27.730469 39.71875 C 27.726562 39.179688 27.753906 39.070312 28.128906 38.09375 C 28.449219 37.261719 28.515625 37.023438 28.453125 36.925781 C 28.410156 36.859375 28.285156 36.570312 28.167969 36.28125 C 26.34375 31.683594 22.621094 29.160156 16.511719 28.375 C 15.148438 28.199219 14.730469 28.191406 14.671875 28.34375 M 16.671875 30.316406 C 16.671875 30.359375 16.78125 30.738281 16.914062 31.152344 C 17.859375 34.070312 19.589844 36.125 22.140625 37.363281 C 23.03125 37.792969 24.054688 38.148438 24.859375 38.304688 C 25.433594 38.414062 26.007812 38.488281 26.007812 38.449219 C 26.007812 38.351562 24.96875 36.042969 24.71875 35.582031 C 24.382812 34.964844 23.671875 33.855469 23.347656 33.441406 C 23.234375 33.300781 23.160156 33.179688 23.183594 33.179688 C 23.285156 33.179688 24.496094 34.265625 25.105469 34.898438 C 25.742188 35.5625 26.40625 36.484375 27.167969 37.761719 C 27.355469 38.074219 27.535156 38.324219 27.570312 38.3125 C 27.609375 38.304688 27.714844 38.152344 27.816406 37.976562 L 27.992188 37.65625 L 27.820312 37.285156 C 27.324219 36.210938 26.289062 34.710938 25.421875 33.816406 C 23.96875 32.3125 22.25 31.324219 20.121094 30.777344 C 18.777344 30.429688 16.671875 30.148438 16.671875 30.316406 M 54.570312 30.359375 C 53.703125 30.480469 52.273438 30.828125 51.515625 31.101562 C 49.128906 31.972656 47.207031 33.578125 45.75 35.910156 C 45.328125 36.582031 44.898438 37.445312 44.898438 37.605469 C 44.898438 37.683594 44.96875 37.902344 45.058594 38.09375 L 45.21875 38.4375 L 45.804688 37.464844 C 46.535156 36.25 46.859375 35.789062 47.417969 35.15625 C 48.085938 34.398438 49.566406 33.082031 49.566406 33.242188 C 49.566406 33.28125 49.53125 33.335938 49.488281 33.359375 C 49.3125 33.46875 48.277344 35.152344 47.859375 36.003906 C 47.417969 36.90625 46.847656 38.246094 46.847656 38.386719 C 46.847656 38.425781 46.917969 38.449219 47.003906 38.4375 C 48.964844 38.171875 50.378906 37.648438 51.898438 36.636719 C 52.59375 36.167969 53.511719 35.335938 54.046875 34.679688 C 54.792969 33.765625 55.832031 31.617188 56.078125 30.480469 L 56.128906 30.253906 L 55.6875 30.261719 C 55.445312 30.265625 54.941406 30.308594 54.570312 30.359375 M 27.242188 47.828125 C 27.203125 50.074219 27.109375 50.933594 26.597656 53.742188 C 26.351562 55.078125 25.71875 57.53125 24.929688 60.1875 C 24.085938 63.019531 23.710938 64.753906 23.710938 65.800781 C 23.710938 68.800781 25.855469 72.621094 29.804688 76.664062 C 31.242188 78.128906 32.496094 79.257812 34.304688 80.707031 C 35.78125 81.890625 36.265625 82.246094 36.40625 82.242188 C 36.503906 82.242188 37.449219 81.527344 38.875 80.367188 C 44.3125 75.957031 47.816406 71.476562 48.855469 67.609375 C 49.007812 67.039062 49.03125 66.800781 49.035156 65.867188 C 49.035156 64.859375 49.019531 64.714844 48.777344 63.707031 C 48.636719 63.113281 48.207031 61.511719 47.820312 60.152344 C 46.089844 54.046875 45.640625 51.554688 45.53125 47.539062 L 45.484375 45.832031 L 45.261719 46.527344 C 44.734375 48.1875 44.589844 49.414062 44.636719 51.882812 C 44.683594 54.355469 44.847656 55.6875 45.535156 59.105469 C 45.816406 60.519531 45.832031 60.671875 45.832031 61.753906 C 45.824219 63.75 45.464844 65.414062 44.679688 67.085938 C 43.90625 68.726562 42.589844 70.613281 41.132812 72.167969 C 40.582031 72.753906 40.722656 72.6875 41.726562 71.886719 C 44.425781 69.722656 46.21875 67.054688 46.671875 64.523438 C 46.742188 64.148438 46.804688 63.851562 46.820312 63.863281 C 46.875 63.917969 47.054688 65.238281 47.054688 65.589844 C 47.054688 66.367188 46.691406 67.511719 46.003906 68.878906 C 44.46875 71.9375 41.503906 75.164062 37.335938 78.304688 L 36.382812 79.023438 L 35.5 78.355469 C 31.027344 74.980469 28.054688 71.660156 26.503906 68.316406 C 25.8125 66.824219 25.621094 65.835938 25.800781 64.671875 C 25.929688 63.84375 25.980469 63.730469 26.042969 64.160156 C 26.355469 66.347656 27.550781 68.519531 29.527344 70.503906 C 30.300781 71.277344 31.816406 72.558594 31.957031 72.558594 C 31.992188 72.558594 31.8125 72.335938 31.554688 72.066406 C 29.457031 69.839844 27.925781 67.273438 27.335938 64.996094 C 26.816406 62.992188 26.796875 61.324219 27.257812 59.039062 C 28.382812 53.492188 28.476562 49.746094 27.570312 46.597656 C 27.46875 46.253906 27.363281 45.945312 27.335938 45.914062 C 27.304688 45.878906 27.265625 46.742188 27.242188 47.828125 M 35.78125 51.058594 C 35.578125 51.152344 35.109375 51.410156 34.734375 51.636719 C 34.363281 51.863281 33.789062 52.195312 33.457031 52.375 C 33.125 52.554688 32.816406 52.746094 32.773438 52.796875 C 32.601562 53.003906 34.144531 54.390625 35.070312 54.855469 C 35.292969 54.96875 35.683594 55.113281 35.9375 55.175781 C 36.375 55.285156 36.433594 55.285156 36.824219 55.175781 C 37.414062 55.011719 38.148438 54.625 38.769531 54.152344 C 39.367188 53.699219 40.03125 52.992188 40.003906 52.84375 C 39.984375 52.753906 39.683594 52.570312 37.789062 51.5 C 36.570312 50.8125 36.402344 50.777344 35.78125 51.058594 " fill-opacity="1" fill-rule="evenodd"/></g></g></g></svg>